<?xml version="1.0" encoding="utf-8"?>
<!-- Generator: Adobe Illustrator 23.0.0, SVG Export Plug-In . SVG Version: 6.00 Build 0)  -->
<svg version="1.1" id="Layer_1" xmlns="http://www.w3.org/2000/svg" xmlns:xlink="http://www.w3.org/1999/xlink" x="0px" y="0px"
	 viewBox="0 0 500 116.7" style="enable-background:new 0 0 500 116.7;" xml:space="preserve">
<style type="text/css">
	.st0{fill:#1D1D1F;}
	.st1{fill:#EAEAEB;}
	.st2{fill:#FFFFFF;}
</style>
<g>
	<g>
		<path class="st0" d="M87.6,102.7H44c-12.3,0-22.3-10-22.3-22.3V36.8c0-12.3,10-22.3,22.3-22.3h43.6c12.3,0,22.3,10,22.3,22.3v43.6
			C109.9,92.7,99.9,102.7,87.6,102.7z"/>
		<g>
			<path class="st1" d="M88,58.3c0,3.4-1.4,6.4-3.6,8.6c-2.2,2.2-5.2,3.6-8.6,3.6h-3.4V46.1h3.4C82.6,46.1,88,51.6,88,58.3z"/>
			<path class="st2" d="M88,30.8v27.5c0-6.7-5.5-12.2-12.2-12.2h-9.3c-3.4,0-6.4,1.4-8.6,3.6c-2.2,2.2-3.6,5.2-3.6,8.6
				c0,6.7,5.5,12.2,12.2,12.2h5.8v15.9h-6.1c-15.3,0-27.8-12.4-27.8-27.8c0-7.7,3.1-14.6,8.1-19.6s12-8.1,19.6-8.1h16.4
				C84.5,30.8,86.3,30.8,88,30.8z"/>
		</g>
	</g>
	<g>
		<path class="st0" d="M183.1,68.3v26.2h-12.7v-5.1c-2.5,3.3-7.9,6-15.7,6c-15.3,0-26.4-11-26.4-27.4c0-16.3,11-27.2,27.3-27.2
			C172.1,40.9,183.1,51.9,183.1,68.3z M155.8,52.6c-8.9,0-14.7,5.8-14.7,15.7c0,9.8,5.8,15.7,14.7,15.7c8.8,0,14.6-5.8,14.6-15.7
			C170.4,58.4,164.6,52.6,155.8,52.6z"/>
		<path class="st0" d="M190.9,20.5h31.2c12.1,0,19.7,8.2,19.7,19.6c0,7.2-3,11.6-7.5,14.1c7.1,2.3,11.3,8.4,11.3,18.7
			c0,12.7-7,21.7-20.5,21.7h-34.1V20.5z M228.5,40.9c0-5.1-4.8-8.3-9.6-8.3h-14.8v16.4h14.8C223.8,49.1,228.5,45.8,228.5,40.9z
			 M233.8,71.9c0-6.5-4.2-10.7-10.5-10.7h-19.2v21.2h19.2C229.6,82.4,233.8,78.2,233.8,71.9z"/>
		<path class="st0" d="M251.8,20.5h12.7v74.1h-12.7V20.5z"/>
		<path class="st0" d="M296.8,40.9c16.4,0,27.3,10.9,27.3,27.2c0,16.4-10.9,27.4-27.3,27.4c-16.4,0-27.4-11-27.4-27.4
			C269.4,51.8,280.4,40.9,296.8,40.9z M296.7,83.9c8.9,0,14.7-5.8,14.7-15.7c0-9.8-5.8-15.7-14.7-15.7c-8.8,0-14.6,5.8-14.6,15.7
			C282.1,78.1,287.9,83.9,296.7,83.9z"/>
		<path class="st0" d="M355.8,83.9c6.5,0,11.2-3.1,13.4-8.5h13.2c-2.9,12.3-12.7,20.1-26.6,20.1c-16.4,0-27.4-11-27.4-27.4
			c0-16.3,11-27.2,27.4-27.2c13.8,0,23.7,7.7,26.5,19.8h-13.2c-2.2-5.2-7-8.1-13.3-8.1c-8.8,0-14.6,5.8-14.6,15.7
			C341.2,78.1,347,83.9,355.8,83.9z"/>
		<path class="st0" d="M387.2,20.5h12.7v53.7l23.9-32.5h15.1l-19.6,26.5l19.2,26.5h-15l-11.6-16.2l-12,16.2h-12.7V20.5z"/>
		<path class="st0" d="M482.3,78.6c0,10.8-8.6,16.6-20.6,16.6c-11.2,0-18.4-5.1-21.7-8l6.8-9.9c4.4,4.2,10.1,6.4,15.2,6.4
			c4.3,0,7.6-1.5,7.6-4.6c0-9.1-28.8-3.5-28.8-22.9c0-9.7,7.3-15.3,19.3-15.3c10.5,0,17.4,4.2,22,8l-6.8,9.8
			c-5.6-4.7-11.1-6.2-15.5-6.2c-4.1,0-6.4,1.4-6.4,3.5C453.5,63.7,482.3,58.8,482.3,78.6z"/>
	</g>
</g>
</svg>
