<svg width="20" height="20" viewBox="0 0 20 20" fill="none" xmlns="http://www.w3.org/2000/svg">
<path d="M14.156 18.4119H5.84401C3.49201 18.4119 1.58801 16.5039 1.58801 14.1559V5.84389C1.58801 3.49189 3.49601 1.58789 5.84401 1.58789H14.152C16.504 1.58789 18.408 3.49589 18.408 5.84389V14.1519C18.412 16.5079 16.508 18.4119 14.156 18.4119Z" fill="white"/>
<path d="M14.236 9.94793C14.236 10.5879 13.976 11.1679 13.556 11.5879C13.136 12.0079 12.556 12.2679 11.916 12.2679H11.26V7.62793H11.916C13.196 7.62793 14.236 8.66793 14.236 9.94793Z" fill="#2A2A2D"/>
<path d="M14.236 4.6998V9.9478C14.236 8.6638 13.196 7.6238 11.912 7.6238H10.144C9.50402 7.6238 8.92402 7.8838 8.50402 8.3038C8.08402 8.7238 7.82402 9.3038 7.82402 9.9438C7.82402 11.2278 8.86402 12.2678 10.148 12.2678H11.26V15.2958H10.1C7.17202 15.2958 4.80002 12.9238 4.80002 9.9958C4.80002 8.5318 5.39202 7.2078 6.35202 6.2478C7.31202 5.2878 8.63602 4.6958 10.1 4.6958H13.228C13.572 4.6998 13.9 4.6998 14.236 4.6998Z" fill="#1D1D1F"/>
</svg>
