<svg width="241" height="180" viewBox="0 0 241 180" fill="none" xmlns="http://www.w3.org/2000/svg">
<g clip-path="url(#clip0_646_8536)">
<path d="M240.252 172.148V179.998H232.518V172.148H240.252Z" fill="white"/>
<path d="M240.246 164.304V172.154H232.512V164.304H240.246Z" fill="#E0E0E0"/>
<path d="M240.253 156.459V164.31H232.519V156.459H240.253Z" fill="white"/>
<path d="M240.247 148.615V156.465H232.513V148.615H240.247Z" fill="#E0E0E0"/>
<path d="M240.243 140.82V148.67H232.508V140.82H240.243Z" fill="white"/>
<path d="M240.249 132.976V140.826H232.515V132.976H240.249Z" fill="#E0E0E0"/>
<path d="M240.243 125.132V132.982H232.509V125.132H240.243Z" fill="white"/>
<path d="M240.25 117.288V125.138H232.516V117.288H240.25Z" fill="#E0E0E0"/>
<path d="M240.251 109.762V117.612H232.516V109.762H240.251Z" fill="white"/>
<path d="M240.245 101.918V109.768H232.51V101.918H240.245Z" fill="#E0E0E0"/>
<path d="M240.251 94.0736V101.924H232.517V94.0736H240.251Z" fill="white"/>
<path d="M240.246 86.2294V94.0794H232.511V86.2294H240.246Z" fill="#E0E0E0"/>
<path d="M240.252 78.3852V86.2352H232.518V78.3852H240.252Z" fill="white"/>
<path d="M240.247 70.541V78.391H232.512V70.541H240.247Z" fill="#E0E0E0"/>
<path d="M240.241 62.6968V70.5468H232.506V62.6968H240.241Z" fill="white"/>
<path d="M240.247 54.8526V62.7026H232.513V54.8526H240.247Z" fill="#E0E0E0"/>
<path d="M240.242 47.0084V54.8584H232.507V47.0084H240.242Z" fill="white"/>
<path d="M240.248 39.1642V47.0142H232.514V39.1642H240.248Z" fill="#E0E0E0"/>
<path d="M240.243 31.3199V39.17H232.508V31.3199H240.243Z" fill="white"/>
<path d="M240.249 23.4757V31.3257H232.515V23.4757H240.249Z" fill="#E0E0E0"/>
<path d="M240.245 15.6806V23.5306H232.51V15.6806L240.245 15.6806Z" fill="white"/>
<path d="M240.251 7.83636V15.6864L232.517 15.6864V7.83636L240.251 7.83636Z" fill="#E0E0E0"/>
<path d="M240.245 -0.00782776V7.84218L232.511 7.84218V-0.00782776L240.245 -0.00782776Z" fill="white"/>
<path d="M232.521 172.152V180.002H224.787V172.152H232.521Z" fill="#E0E0E0"/>
<path d="M232.516 164.307V172.157H224.781V164.307H232.516Z" fill="white"/>
<path d="M232.522 156.463V164.313H224.788V156.463H232.522Z" fill="#E0E0E0"/>
<path d="M232.516 148.619V156.469H224.782V148.619H232.516Z" fill="white"/>
<path d="M232.511 140.775V148.625H224.776V140.775H232.511Z" fill="#E0E0E0"/>
<path d="M232.518 132.98V140.83H224.784V132.98H232.518Z" fill="white"/>
<path d="M232.513 125.135V132.985H224.778V125.135H232.513Z" fill="#E0E0E0"/>
<path d="M232.519 117.291V125.141H224.785V117.291H232.519Z" fill="white"/>
<path d="M232.513 109.447V117.297H224.779V109.447H232.513Z" fill="#E0E0E0"/>
<path d="M232.514 101.921V109.771H224.78V101.921H232.514Z" fill="white"/>
<path d="M232.521 94.0772V101.927H224.786V94.0772H232.521Z" fill="#E0E0E0"/>
<path d="M232.515 86.233V94.083H224.781V86.233H232.515Z" fill="white"/>
<path d="M232.522 78.3888V86.2388H224.787V78.3888H232.522Z" fill="#E0E0E0"/>
<path d="M232.516 70.5446V78.3946H224.781V70.5446H232.516Z" fill="white"/>
<path d="M232.51 62.7004V70.5504H224.776V62.7004H232.51Z" fill="#E0E0E0"/>
<path d="M232.517 54.8562V62.7062H224.782V54.8562H232.517Z" fill="white"/>
<path d="M232.511 47.012V54.862H224.777V47.012H232.511Z" fill="#E0E0E0"/>
<path d="M232.518 39.1678V47.0178H224.783V39.1678H232.518Z" fill="white"/>
<path d="M232.512 31.3236V39.1736H224.778V31.3236H232.512Z" fill="#E0E0E0"/>
<path d="M232.518 23.4794V31.3294H224.784V23.4794H232.518Z" fill="white"/>
<path d="M232.513 15.6352V23.4852H224.778V15.6352L232.513 15.6352Z" fill="#E0E0E0"/>
<path d="M232.52 7.84004V15.69L224.786 15.69V7.84004L232.52 7.84004Z" fill="white"/>
<path d="M232.515 -0.00415039V7.84584L224.78 7.84584V-0.00415039L232.515 -0.00415039Z" fill="#E0E0E0"/>
<path d="M224.791 172.155V180.005H217.056V172.155H224.791Z" fill="white"/>
<path d="M224.785 164.311V172.161H217.05V164.311H224.785Z" fill="#E0E0E0"/>
<path d="M224.791 156.467V164.317H217.057V156.467H224.791Z" fill="white"/>
<path d="M224.786 148.623V156.473H217.051V148.623H224.786Z" fill="#E0E0E0"/>
<path d="M224.781 140.827V148.677H217.047V140.827H224.781Z" fill="white"/>
<path d="M224.788 132.983V140.833H217.053V132.983H224.788Z" fill="#E0E0E0"/>
<path d="M224.782 125.139V132.989H217.048V125.139H224.782Z" fill="white"/>
<path d="M224.789 117.295V125.145H217.054V117.295H224.789Z" fill="#E0E0E0"/>
<path d="M224.789 109.769V117.619H217.055V109.769H224.789Z" fill="white"/>
<path d="M224.783 101.925V109.775H217.049V101.925H224.783Z" fill="#E0E0E0"/>
<path d="M224.79 94.0809V101.931H217.056V94.0809H224.79Z" fill="white"/>
<path d="M224.784 86.2367V94.0867H217.05V86.2367H224.784Z" fill="#E0E0E0"/>
<path d="M224.791 78.3925V86.2425H217.056V78.3925H224.791Z" fill="white"/>
<path d="M224.785 70.5483V78.3983H217.051V70.5483H224.785Z" fill="#E0E0E0"/>
<path d="M224.779 62.7041V70.5541H217.045V62.7041H224.779Z" fill="white"/>
<path d="M224.786 54.8599V62.7099H217.052V54.8599H224.786Z" fill="#E0E0E0"/>
<path d="M224.78 47.0157V54.8657H217.046V47.0157H224.78Z" fill="white"/>
<path d="M224.787 39.1715V47.0215H217.052V39.1715H224.787Z" fill="#E0E0E0"/>
<path d="M224.781 31.3273V39.1773H217.047V31.3273H224.781Z" fill="white"/>
<path d="M224.788 23.4831V31.3331H217.053V23.4831H224.788Z" fill="#E0E0E0"/>
<path d="M224.783 15.6879V23.5379H217.049V15.6879L224.783 15.6879Z" fill="white"/>
<path d="M224.79 7.8437V15.6937L217.055 15.6937V7.8437L224.79 7.8437Z" fill="#E0E0E0"/>
<path d="M224.784 -0.000518799V7.84949L217.049 7.84949V-0.000518799L224.784 -0.000518799Z" fill="white"/>
<path d="M217.06 172.146V179.996H209.325V172.146H217.06Z" fill="#E0E0E0"/>
<path d="M217.054 164.302V172.152H209.32V164.302H217.054Z" fill="white"/>
<path d="M217.061 156.458V164.308H209.326V156.458H217.061Z" fill="#E0E0E0"/>
<path d="M217.055 148.614V156.464H209.321V148.614H217.055Z" fill="white"/>
<path d="M217.049 140.77V148.62H209.315V140.77H217.049Z" fill="#E0E0E0"/>
<path d="M217.057 132.974V140.824H209.322V132.974H217.057Z" fill="white"/>
<path d="M217.051 125.13V132.98H209.317V125.13H217.051Z" fill="#E0E0E0"/>
<path d="M217.058 117.286V125.136H209.323V117.286H217.058Z" fill="white"/>
<path d="M217.052 109.442V117.292H209.318V109.442H217.052Z" fill="#E0E0E0"/>
<path d="M217.052 101.916V109.766H209.318V101.916H217.052Z" fill="white"/>
<path d="M217.059 94.072V101.922H209.325V94.072H217.059Z" fill="#E0E0E0"/>
<path d="M217.053 86.2278V94.0778H209.319V86.2278H217.053Z" fill="white"/>
<path d="M217.06 78.3836V86.2336H209.326V78.3836H217.06Z" fill="#E0E0E0"/>
<path d="M217.054 70.5394V78.3894H209.32V70.5394H217.054Z" fill="white"/>
<path d="M217.049 62.6952V70.5452H209.314V62.6952H217.049Z" fill="#E0E0E0"/>
<path d="M217.055 54.851V62.701H209.321V54.851H217.055Z" fill="white"/>
<path d="M217.049 47.0068V54.8568H209.315V47.0068H217.049Z" fill="#E0E0E0"/>
<path d="M217.056 39.1626V47.0126H209.322V39.1626H217.056Z" fill="white"/>
<path d="M217.05 31.3184V39.1684H209.316V31.3184H217.05Z" fill="#E0E0E0"/>
<path d="M217.057 23.4742V31.3242H209.323V23.4742H217.057Z" fill="white"/>
<path d="M217.051 15.63V23.48H209.317V15.63L217.051 15.63Z" fill="#E0E0E0"/>
<path d="M217.059 7.83484V15.6848L209.324 15.6848V7.83484L217.059 7.83484Z" fill="white"/>
<path d="M217.053 -0.0093689V7.84064L209.319 7.84064V-0.0093689L217.053 -0.0093689Z" fill="#E0E0E0"/>
<path d="M209.329 172.15V180H201.595V172.15H209.329Z" fill="white"/>
<path d="M209.323 164.306V172.156H201.589V164.306H209.323Z" fill="#E0E0E0"/>
<path d="M209.33 156.462V164.312H201.595V156.462H209.33Z" fill="white"/>
<path d="M209.324 148.617V156.467H201.59V148.617H209.324Z" fill="#E0E0E0"/>
<path d="M209.319 140.822V148.672H201.585V140.822H209.319Z" fill="white"/>
<path d="M209.326 132.978V140.828H201.592V132.978H209.326Z" fill="#E0E0E0"/>
<path d="M209.32 125.134V132.984H201.586V125.134H209.32Z" fill="white"/>
<path d="M209.327 117.29V125.14H201.592V117.29H209.327Z" fill="#E0E0E0"/>
<path d="M209.327 109.764V117.614H201.593V109.764H209.327Z" fill="white"/>
<path d="M209.322 101.92V109.77H201.587V101.92H209.322Z" fill="#E0E0E0"/>
<path d="M209.328 94.0757V101.926H201.594V94.0757H209.328Z" fill="white"/>
<path d="M209.323 86.2315V94.0815H201.588V86.2315H209.323Z" fill="#E0E0E0"/>
<path d="M209.329 78.3873V86.2373H201.595V78.3873H209.329Z" fill="white"/>
<path d="M209.323 70.5431V78.3931H201.589V70.5431H209.323Z" fill="#E0E0E0"/>
<path d="M209.318 62.6989V70.5489H201.583V62.6989H209.318Z" fill="white"/>
<path d="M209.324 54.8547V62.7047H201.59V54.8547H209.324Z" fill="#E0E0E0"/>
<path d="M209.319 47.0105V54.8605H201.584V47.0105H209.319Z" fill="white"/>
<path d="M209.325 39.1663V47.0163H201.591V39.1663H209.325Z" fill="#E0E0E0"/>
<path d="M209.32 31.3221V39.1721H201.585V31.3221H209.32Z" fill="white"/>
<path d="M209.326 23.4779V31.3279H201.592V23.4779H209.326Z" fill="#E0E0E0"/>
<path d="M209.321 15.6827V23.5327H201.587V15.6827L209.321 15.6827Z" fill="white"/>
<path d="M209.328 7.8385V15.6885L201.594 15.6885V7.8385L209.328 7.8385Z" fill="#E0E0E0"/>
<path d="M209.322 -0.00570679V7.84428L201.588 7.84428V-0.00570679L209.322 -0.00570679Z" fill="white"/>
<path d="M201.598 172.154V180.004H193.864V172.154H201.598Z" fill="#E0E0E0"/>
<path d="M201.592 164.309V172.159H193.858V164.309H201.592Z" fill="white"/>
<path d="M201.599 156.465V164.315H193.865V156.465H201.599Z" fill="#E0E0E0"/>
<path d="M201.593 148.621V156.471H193.859V148.621H201.593Z" fill="white"/>
<path d="M201.588 140.777V148.627H193.853V140.777H201.588Z" fill="#E0E0E0"/>
<path d="M201.595 132.982V140.832H193.861V132.982H201.595Z" fill="white"/>
<path d="M201.589 125.137V132.987H193.855V125.137H201.589Z" fill="#E0E0E0"/>
<path d="M201.596 117.293V125.143H193.862V117.293H201.596Z" fill="white"/>
<path d="M201.59 109.449V117.299H193.856V109.449H201.59Z" fill="#E0E0E0"/>
<path d="M201.591 101.924V109.774H193.856V101.924H201.591Z" fill="white"/>
<path d="M201.598 94.0793V101.929H193.863V94.0793H201.598Z" fill="#E0E0E0"/>
<path d="M201.592 86.2351V94.0851H193.857V86.2351H201.592Z" fill="white"/>
<path d="M201.598 78.3909V86.2409H193.864V78.3909H201.598Z" fill="#E0E0E0"/>
<path d="M201.593 70.5467V78.3967H193.858V70.5467H201.593Z" fill="white"/>
<path d="M201.587 62.7025V70.5525H193.853V62.7025H201.587Z" fill="#E0E0E0"/>
<path d="M201.594 54.8583V62.7083H193.859V54.8583H201.594Z" fill="white"/>
<path d="M201.588 47.0141V54.8641H193.853V47.0141H201.588Z" fill="#E0E0E0"/>
<path d="M201.594 39.1699V47.0199H193.86V39.1699H201.594Z" fill="white"/>
<path d="M201.589 31.3257V39.1757H193.854V31.3257H201.589Z" fill="#E0E0E0"/>
<path d="M201.595 23.4815V31.3315H193.861V23.4815H201.595Z" fill="white"/>
<path d="M201.59 15.6373V23.4873H193.855V15.6373L201.59 15.6373Z" fill="#E0E0E0"/>
<path d="M201.597 7.84213V15.6921L193.863 15.6921V7.84213L201.597 7.84213Z" fill="white"/>
<path d="M201.591 -0.0020752V7.84793L193.857 7.84793V-0.0020752L201.591 -0.0020752Z" fill="#E0E0E0"/>
<path d="M193.867 172.145V179.995H186.133V172.145H193.867Z" fill="white"/>
<path d="M193.862 164.301V172.151H186.127V164.301H193.862Z" fill="#E0E0E0"/>
<path d="M193.868 156.456V164.306H186.134V156.456H193.868Z" fill="white"/>
<path d="M193.863 148.612V156.462H186.128V148.612H193.863Z" fill="#E0E0E0"/>
<path d="M193.858 140.817V148.667H186.123V140.817H193.858Z" fill="white"/>
<path d="M193.864 132.973V140.823H186.13V132.973H193.864Z" fill="#E0E0E0"/>
<path d="M193.859 125.129V132.979H186.124V125.129H193.859Z" fill="white"/>
<path d="M193.865 117.284V125.134H186.131V117.284H193.865Z" fill="#E0E0E0"/>
<path d="M193.866 109.759V117.609H186.131V109.759H193.866Z" fill="white"/>
<path d="M193.86 101.915V109.765H186.126V101.915H193.86Z" fill="#E0E0E0"/>
<path d="M193.867 94.0705V101.92H186.132V94.0705H193.867Z" fill="white"/>
<path d="M193.861 86.2263V94.0763H186.127V86.2263H193.861Z" fill="#E0E0E0"/>
<path d="M193.868 78.3821V86.2321H186.133V78.3821H193.868Z" fill="white"/>
<path d="M193.862 70.5379V78.3879H186.127V70.5379H193.862Z" fill="#E0E0E0"/>
<path d="M193.856 62.6937V70.5437H186.122V62.6937H193.856Z" fill="white"/>
<path d="M193.863 54.8495V62.6995H186.128V54.8495H193.863Z" fill="#E0E0E0"/>
<path d="M193.857 47.0052V54.8553H186.123V47.0052H193.857Z" fill="white"/>
<path d="M193.864 39.161V47.011H186.129V39.161H193.864Z" fill="#E0E0E0"/>
<path d="M193.858 31.3168V39.1668H186.124V31.3168H193.858Z" fill="white"/>
<path d="M193.865 23.4726V31.3226H186.13V23.4726H193.865Z" fill="#E0E0E0"/>
<path d="M193.86 15.6775V23.5275H186.125V15.6775L193.86 15.6775Z" fill="white"/>
<path d="M193.866 7.83328V15.6833L186.132 15.6833V7.83328L193.866 7.83328Z" fill="#E0E0E0"/>
<path d="M193.861 -0.0109253V7.83908L186.126 7.83908V-0.0109253L193.861 -0.0109253Z" fill="white"/>
<path d="M186.137 172.148V179.998H178.402V172.148H186.137Z" fill="#E0E0E0"/>
<path d="M186.131 164.304V172.154H178.396V164.304H186.131Z" fill="white"/>
<path d="M186.137 156.46V164.31H178.403V156.46H186.137Z" fill="#E0E0E0"/>
<path d="M186.132 148.616V156.466H178.397V148.616H186.132Z" fill="white"/>
<path d="M186.126 140.772V148.622H178.392V140.772H186.126Z" fill="#E0E0E0"/>
<path d="M186.134 132.976V140.826H178.399V132.976H186.134Z" fill="white"/>
<path d="M186.128 125.132V132.982H178.393V125.132H186.128Z" fill="#E0E0E0"/>
<path d="M186.134 117.288V125.138H178.4V117.288H186.134Z" fill="white"/>
<path d="M186.129 109.444V117.294H178.394V109.444H186.129Z" fill="#E0E0E0"/>
<path d="M186.129 101.918V109.768H178.395V101.918H186.129Z" fill="white"/>
<path d="M186.136 94.0741V101.924H178.402V94.0741H186.136Z" fill="#E0E0E0"/>
<path d="M186.13 86.2299V94.0799H178.396V86.2299H186.13Z" fill="white"/>
<path d="M186.137 78.3857V86.2357H178.402V78.3857H186.137Z" fill="#E0E0E0"/>
<path d="M186.131 70.5415V78.3915H178.397V70.5415H186.131Z" fill="white"/>
<path d="M186.125 62.6973V70.5473H178.391V62.6973H186.125Z" fill="#E0E0E0"/>
<path d="M186.132 54.8531V62.7031H178.398V54.8531H186.132Z" fill="white"/>
<path d="M186.126 47.0089V54.8589H178.392V47.0089H186.126Z" fill="#E0E0E0"/>
<path d="M186.133 39.1647V47.0147H178.398V39.1647H186.133Z" fill="white"/>
<path d="M186.127 31.3205V39.1705H178.393V31.3205H186.127Z" fill="#E0E0E0"/>
<path d="M186.134 23.4763V31.3263H178.399V23.4763H186.134Z" fill="white"/>
<path d="M186.128 15.6321V23.4821H178.394V15.6321L186.128 15.6321Z" fill="#E0E0E0"/>
<path d="M186.136 7.83693V15.6869L178.401 15.6869V7.83693L186.136 7.83693Z" fill="white"/>
<path d="M186.13 -0.00727844V7.84271L178.395 7.84271V-0.00727844L186.13 -0.00727844Z" fill="#E0E0E0"/>
<path d="M178.406 172.152V180.002H170.671V172.152H178.406Z" fill="white"/>
<path d="M178.4 164.308V172.158H170.666V164.308H178.4Z" fill="#E0E0E0"/>
<path d="M178.407 156.464V164.314H170.672V156.464H178.407Z" fill="white"/>
<path d="M178.401 148.619V156.469H170.667V148.619H178.401Z" fill="#E0E0E0"/>
<path d="M178.396 140.824V148.674H170.662V140.824H178.396Z" fill="white"/>
<path d="M178.403 132.98V140.83H170.668V132.98H178.403Z" fill="#E0E0E0"/>
<path d="M178.397 125.136V132.986H170.663V125.136H178.397Z" fill="white"/>
<path d="M178.404 117.292V125.142H170.669V117.292H178.404Z" fill="#E0E0E0"/>
<path d="M178.404 109.766V117.616H170.67V109.766H178.404Z" fill="white"/>
<path d="M178.398 101.922V109.772H170.664V101.922H178.398Z" fill="#E0E0E0"/>
<path d="M178.405 94.0778V101.928H170.671V94.0778H178.405Z" fill="white"/>
<path d="M178.399 86.2336V94.0836H170.665V86.2336H178.399Z" fill="#E0E0E0"/>
<path d="M178.406 78.3894V86.2394H170.672V78.3894H178.406Z" fill="white"/>
<path d="M178.4 70.5452V78.3952H170.666V70.5452H178.4Z" fill="#E0E0E0"/>
<path d="M178.395 62.701V70.551H170.66V62.701H178.395Z" fill="white"/>
<path d="M178.401 54.8568V62.7068H170.667V54.8568H178.401Z" fill="#E0E0E0"/>
<path d="M178.395 47.0126V54.8626H170.661V47.0126H178.395Z" fill="white"/>
<path d="M178.402 39.1684V47.0184H170.668V39.1684H178.402Z" fill="#E0E0E0"/>
<path d="M178.396 31.3241V39.1741H170.662V31.3241H178.396Z" fill="white"/>
<path d="M178.403 23.4799V31.33H170.669V23.4799H178.403Z" fill="#E0E0E0"/>
<path d="M178.398 15.6848V23.5348H170.664V15.6848L178.398 15.6848Z" fill="white"/>
<path d="M178.405 7.84058V15.6906L170.67 15.6906V7.84058L178.405 7.84058Z" fill="#E0E0E0"/>
<path d="M178.399 -0.00363159V7.84637L170.665 7.84637V-0.00363159L178.399 -0.00363159Z" fill="white"/>
<path d="M170.675 172.156V180.006H162.941V172.156H170.675Z" fill="#E0E0E0"/>
<path d="M170.669 164.312V172.162H162.935V164.312H170.669Z" fill="white"/>
<path d="M170.676 156.467V164.317H162.941V156.467H170.676Z" fill="#E0E0E0"/>
<path d="M170.67 148.623V156.473H162.936V148.623H170.67Z" fill="white"/>
<path d="M170.664 140.779V148.629H162.93V140.779H170.664Z" fill="#E0E0E0"/>
<path d="M170.672 132.984V140.834H162.938V132.984H170.672Z" fill="white"/>
<path d="M170.666 125.14V132.99H162.932V125.14H170.666Z" fill="#E0E0E0"/>
<path d="M170.673 117.295V125.145H162.939V117.295H170.673Z" fill="white"/>
<path d="M170.667 109.451V117.301H162.933V109.451H170.667Z" fill="#E0E0E0"/>
<path d="M170.668 101.926V109.776H162.933V101.926H170.668Z" fill="white"/>
<path d="M170.674 94.0814V101.931H162.94V94.0814H170.674Z" fill="#E0E0E0"/>
<path d="M170.669 86.2372V94.0872H162.934V86.2372H170.669Z" fill="white"/>
<path d="M170.675 78.393V86.243H162.941V78.393H170.675Z" fill="#E0E0E0"/>
<path d="M170.669 70.5488V78.3988H162.935V70.5488H170.669Z" fill="white"/>
<path d="M170.664 62.7046V70.5546H162.929V62.7046H170.664Z" fill="#E0E0E0"/>
<path d="M170.67 54.8604V62.7104H162.936V54.8604H170.67Z" fill="white"/>
<path d="M170.665 47.0162V54.8662H162.93V47.0162H170.665Z" fill="#E0E0E0"/>
<path d="M170.671 39.172V47.022H162.937V39.172H170.671Z" fill="white"/>
<path d="M170.666 31.3278V39.1778H162.931V31.3278H170.666Z" fill="#E0E0E0"/>
<path d="M170.672 23.4836V31.3336H162.938V23.4836H170.672Z" fill="white"/>
<path d="M170.667 15.6394V23.4894H162.932V15.6394L170.667 15.6394Z" fill="#E0E0E0"/>
<path d="M170.674 7.84422V15.6942L162.94 15.6942V7.84422L170.674 7.84422Z" fill="white"/>
<path d="M170.668 0V7.85001L162.934 7.85001V0L170.668 0Z" fill="#E0E0E0"/>
<path d="M162.944 172.147V179.997H155.21V172.147H162.944Z" fill="white"/>
<path d="M162.938 164.303V172.153H155.204V164.303H162.938Z" fill="#E0E0E0"/>
<path d="M162.945 156.458V164.308H155.211V156.458H162.945Z" fill="white"/>
<path d="M162.939 148.614V156.464H155.205V148.614H162.939Z" fill="#E0E0E0"/>
<path d="M162.935 140.819V148.669H155.2V140.819H162.935Z" fill="white"/>
<path d="M162.941 132.975V140.825H155.207V132.975H162.941Z" fill="#E0E0E0"/>
<path d="M162.935 125.131V132.981H155.201V125.131H162.935Z" fill="white"/>
<path d="M162.942 117.286V125.136H155.208V117.286H162.942Z" fill="#E0E0E0"/>
<path d="M162.943 109.761V117.611H155.208V109.761H162.943Z" fill="white"/>
<path d="M162.937 101.917V109.767H155.203V101.917H162.937Z" fill="#E0E0E0"/>
<path d="M162.943 94.0726V101.923H155.209V94.0726H162.943Z" fill="white"/>
<path d="M162.938 86.2284V94.0783H155.203V86.2284H162.938Z" fill="#E0E0E0"/>
<path d="M162.944 78.3842V86.2342H155.21V78.3842H162.944Z" fill="white"/>
<path d="M162.939 70.54V78.3899H155.204V70.54H162.939Z" fill="#E0E0E0"/>
<path d="M162.933 62.6957V70.5457H155.199V62.6957H162.933Z" fill="white"/>
<path d="M162.94 54.8515V62.7015H155.205V54.8515H162.94Z" fill="#E0E0E0"/>
<path d="M162.934 47.0073V54.8573H155.2V47.0073H162.934Z" fill="white"/>
<path d="M162.94 39.1631V47.0131H155.206V39.1631H162.94Z" fill="#E0E0E0"/>
<path d="M162.935 31.3189V39.1689H155.2V31.3189H162.935Z" fill="white"/>
<path d="M162.941 23.4747V31.3247H155.207V23.4747H162.941Z" fill="#E0E0E0"/>
<path d="M162.937 15.6796V23.5295H155.202V15.6796L162.937 15.6796Z" fill="white"/>
<path d="M162.943 7.83536V15.6853L155.209 15.6853V7.83536L162.943 7.83536Z" fill="#E0E0E0"/>
<path d="M162.937 -0.00886536V7.84113L155.203 7.84113V-0.00886536L162.937 -0.00886536Z" fill="white"/>
<path d="M155.213 172.151V180.001H147.479V172.151H155.213Z" fill="#E0E0E0"/>
<path d="M155.208 164.306V172.156H147.473V164.306H155.208Z" fill="white"/>
<path d="M155.214 156.462V164.312H147.48V156.462H155.214Z" fill="#E0E0E0"/>
<path d="M155.209 148.618V156.468H147.474V148.618H155.209Z" fill="white"/>
<path d="M155.203 140.774V148.624H147.468V140.774H155.203Z" fill="#E0E0E0"/>
<path d="M155.21 132.979V140.829H147.476V132.979H155.21Z" fill="white"/>
<path d="M155.205 125.134V132.984H147.47V125.134H155.205Z" fill="#E0E0E0"/>
<path d="M155.211 117.29V125.14H147.477V117.29H155.211Z" fill="white"/>
<path d="M155.206 109.446V117.296H147.471V109.446H155.206Z" fill="#E0E0E0"/>
<path d="M155.206 101.92V109.77H147.472V101.92H155.206Z" fill="white"/>
<path d="M155.213 94.0762V101.926H147.478V94.0762H155.213Z" fill="#E0E0E0"/>
<path d="M155.207 86.232V94.082H147.473V86.232H155.207Z" fill="white"/>
<path d="M155.214 78.3878V86.2378H147.479V78.3878H155.214Z" fill="#E0E0E0"/>
<path d="M155.208 70.5436V78.3936H147.474V70.5436H155.208Z" fill="white"/>
<path d="M155.202 62.6994V70.5494H147.468V62.6994H155.202Z" fill="#E0E0E0"/>
<path d="M155.209 54.8552V62.7052H147.474V54.8552H155.209Z" fill="white"/>
<path d="M155.203 47.011V54.861H147.469V47.011H155.203Z" fill="#E0E0E0"/>
<path d="M155.21 39.1668V47.0168H147.475V39.1668H155.21Z" fill="white"/>
<path d="M155.204 31.3226V39.1726H147.47V31.3226H155.204Z" fill="#E0E0E0"/>
<path d="M155.211 23.4784V31.3284H147.476V23.4784H155.211Z" fill="white"/>
<path d="M155.205 15.6342V23.4842H147.47V15.6342L155.205 15.6342Z" fill="#E0E0E0"/>
<path d="M155.212 7.83902V15.689L147.478 15.689V7.83902L155.212 7.83902Z" fill="white"/>
<path d="M155.207 -0.00518799V7.84482L147.472 7.84482V-0.00518799L155.207 -0.00518799Z" fill="#E0E0E0"/>
<path d="M147.483 172.154V180.004H139.748V172.154H147.483Z" fill="white"/>
<path d="M147.477 164.31V172.16H139.742V164.31H147.477Z" fill="#E0E0E0"/>
<path d="M147.483 156.466V164.316H139.749V156.466H147.483Z" fill="white"/>
<path d="M147.478 148.622V156.472H139.743V148.622H147.478Z" fill="#E0E0E0"/>
<path d="M147.473 140.826V148.676H139.739V140.826H147.473Z" fill="white"/>
<path d="M147.48 132.982V140.832H139.745V132.982H147.48Z" fill="#E0E0E0"/>
<path d="M147.474 125.138V132.988H139.739V125.138H147.474Z" fill="white"/>
<path d="M147.48 117.294V125.144H139.746V117.294H147.48Z" fill="#E0E0E0"/>
<path d="M147.481 109.768V117.618H139.747V109.768H147.481Z" fill="white"/>
<path d="M147.475 101.924V109.774H139.741V101.924H147.475Z" fill="#E0E0E0"/>
<path d="M147.482 94.0798V101.93H139.748V94.0798H147.482Z" fill="white"/>
<path d="M147.476 86.2356V94.0857H139.742V86.2356H147.476Z" fill="#E0E0E0"/>
<path d="M147.483 78.3914V86.2415H139.748V78.3914H147.483Z" fill="white"/>
<path d="M147.477 70.5472V78.3972H139.743V70.5472H147.477Z" fill="#E0E0E0"/>
<path d="M147.471 62.703V70.553H139.737V62.703H147.471Z" fill="white"/>
<path d="M147.478 54.8588V62.7088H139.744V54.8588H147.478Z" fill="#E0E0E0"/>
<path d="M147.472 47.0146V54.8647H139.738V47.0146H147.472Z" fill="white"/>
<path d="M147.479 39.1705V47.0205H139.744V39.1705H147.479Z" fill="#E0E0E0"/>
<path d="M147.473 31.3262V39.1763H139.739V31.3262H147.473Z" fill="white"/>
<path d="M147.48 23.482V31.332H139.745V23.482H147.48Z" fill="#E0E0E0"/>
<path d="M147.475 15.6869V23.5369H139.741V15.6869L147.475 15.6869Z" fill="white"/>
<path d="M147.482 7.84265V15.6927L139.747 15.6927V7.84265L147.482 7.84265Z" fill="#E0E0E0"/>
<path d="M147.476 -0.0015564V7.84845L139.742 7.84845V-0.0015564L147.476 -0.0015564Z" fill="white"/>
<path d="M139.752 172.145V179.995H132.018V172.145H139.752Z" fill="#E0E0E0"/>
<path d="M139.746 164.301V172.151H132.012V164.301H139.746Z" fill="white"/>
<path d="M139.753 156.457V164.307H132.018V156.457H139.753Z" fill="#E0E0E0"/>
<path d="M139.747 148.613V156.463H132.013V148.613H139.747Z" fill="white"/>
<path d="M139.741 140.769V148.619H132.007V140.769H139.741Z" fill="#E0E0E0"/>
<path d="M139.749 132.973V140.823H132.015V132.973H139.749Z" fill="white"/>
<path d="M139.743 125.129V132.979H132.009V125.129H139.743Z" fill="#E0E0E0"/>
<path d="M139.75 117.285V125.135H132.015V117.285H139.75Z" fill="white"/>
<path d="M139.744 109.441V117.291H132.01V109.441H139.744Z" fill="#E0E0E0"/>
<path d="M139.745 101.915V109.765H132.01V101.915H139.745Z" fill="white"/>
<path d="M139.751 94.071V101.921H132.017V94.071H139.751Z" fill="#E0E0E0"/>
<path d="M139.745 86.2268V94.0768H132.011V86.2268H139.745Z" fill="white"/>
<path d="M139.752 78.3826V86.2326H132.018V78.3826H139.752Z" fill="#E0E0E0"/>
<path d="M139.746 70.5384V78.3884H132.012V70.5384H139.746Z" fill="white"/>
<path d="M139.741 62.6942V70.5442H132.006V62.6942H139.741Z" fill="#E0E0E0"/>
<path d="M139.747 54.85V62.7H132.013V54.85H139.747Z" fill="white"/>
<path d="M139.741 47.0058V54.8558H132.007V47.0058H139.741Z" fill="#E0E0E0"/>
<path d="M139.748 39.1616V47.0116H132.014V39.1616H139.748Z" fill="white"/>
<path d="M139.742 31.3174V39.1674H132.008V31.3174H139.742Z" fill="#E0E0E0"/>
<path d="M139.749 23.4732V31.3232H132.015V23.4732H139.749Z" fill="white"/>
<path d="M139.743 15.629V23.479H132.009V15.629L139.743 15.629Z" fill="#E0E0E0"/>
<path d="M139.751 7.83382V15.6838L132.017 15.6838V7.83382L139.751 7.83382Z" fill="white"/>
<path d="M139.745 -0.010376V7.83961L132.011 7.83961V-0.010376L139.745 -0.010376Z" fill="#E0E0E0"/>
<path d="M132.021 172.149V179.999H124.287V172.149H132.021Z" fill="white"/>
<path d="M132.015 164.305V172.155H124.281V164.305H132.015Z" fill="#E0E0E0"/>
<path d="M132.022 156.461V164.311H124.288V156.461H132.022Z" fill="white"/>
<path d="M132.016 148.616V156.466H124.282V148.616H132.016Z" fill="#E0E0E0"/>
<path d="M132.011 140.821V148.671H124.277V140.821H132.011Z" fill="white"/>
<path d="M132.018 132.977V140.827H124.284V132.977H132.018Z" fill="#E0E0E0"/>
<path d="M132.012 125.133V132.983H124.278V125.133H132.012Z" fill="white"/>
<path d="M132.019 117.289V125.139H124.285V117.289H132.019Z" fill="#E0E0E0"/>
<path d="M132.019 109.763V117.613H124.285V109.763H132.019Z" fill="white"/>
<path d="M132.014 101.919V109.769H124.279V101.919H132.014Z" fill="#E0E0E0"/>
<path d="M132.02 94.0747V101.925H124.286V94.0747H132.02Z" fill="white"/>
<path d="M132.015 86.2305V94.0805H124.28V86.2305H132.015Z" fill="#E0E0E0"/>
<path d="M132.021 78.3863V86.2363H124.287V78.3863H132.021Z" fill="white"/>
<path d="M132.016 70.5421V78.3921H124.281V70.5421H132.016Z" fill="#E0E0E0"/>
<path d="M132.01 62.6978V70.5478H124.275V62.6978H132.01Z" fill="white"/>
<path d="M132.016 54.8536V62.7036H124.282V54.8536H132.016Z" fill="#E0E0E0"/>
<path d="M132.011 47.0095V54.8595H124.276V47.0095H132.011Z" fill="white"/>
<path d="M132.017 39.1652V47.0152H124.283V39.1652H132.017Z" fill="#E0E0E0"/>
<path d="M132.012 31.3211V39.1711H124.277V31.3211H132.012Z" fill="white"/>
<path d="M132.018 23.4768V31.3268H124.284V23.4768H132.018Z" fill="#E0E0E0"/>
<path d="M132.013 15.6817V23.5317H124.279V15.6817L132.013 15.6817Z" fill="white"/>
<path d="M132.02 7.83746V15.6875L124.286 15.6875V7.83746L132.02 7.83746Z" fill="#E0E0E0"/>
<path d="M132.014 -0.00673676V7.84326L124.28 7.84326V-0.00673676L132.014 -0.00673676Z" fill="white"/>
<path d="M124.29 172.153V180.003H116.556V172.153H124.29Z" fill="#E0E0E0"/>
<path d="M124.284 164.308V172.158H116.55V164.308H124.284Z" fill="white"/>
<path d="M124.291 156.464V164.314H116.557V156.464H124.291Z" fill="#E0E0E0"/>
<path d="M124.285 148.62V156.47H116.551V148.62H124.285Z" fill="white"/>
<path d="M124.28 140.776V148.626H116.545V140.776H124.28Z" fill="#E0E0E0"/>
<path d="M124.287 132.981V140.831H116.553V132.981H124.287Z" fill="white"/>
<path d="M124.282 125.136V132.986H116.547V125.136H124.282Z" fill="#E0E0E0"/>
<path d="M124.288 117.292V125.142H116.554V117.292H124.288Z" fill="white"/>
<path d="M124.282 109.448V117.298H116.548V109.448H124.282Z" fill="#E0E0E0"/>
<path d="M124.283 101.923V109.772H116.549V101.923H124.283Z" fill="white"/>
<path d="M124.29 94.0783V101.928H116.555V94.0783H124.29Z" fill="#E0E0E0"/>
<path d="M124.284 86.2341V94.0841H116.549V86.2341H124.284Z" fill="white"/>
<path d="M124.29 78.3899V86.2399H116.556V78.3899H124.29Z" fill="#E0E0E0"/>
<path d="M124.285 70.5457V78.3957H116.55V70.5457H124.285Z" fill="white"/>
<path d="M124.279 62.7015V70.5515H116.545V62.7015H124.279Z" fill="#E0E0E0"/>
<path d="M124.286 54.8573V62.7073H116.551V54.8573H124.286Z" fill="white"/>
<path d="M124.28 47.0131V54.8631H116.546V47.0131H124.28Z" fill="#E0E0E0"/>
<path d="M124.287 39.1689V47.0189H116.552V39.1689H124.287Z" fill="white"/>
<path d="M124.281 31.3247V39.1747H116.546V31.3247H124.281Z" fill="#E0E0E0"/>
<path d="M124.287 23.4805V31.3305H116.553V23.4805H124.287Z" fill="white"/>
<path d="M124.282 15.6363V23.4863H116.547V15.6363L124.282 15.6363Z" fill="#E0E0E0"/>
<path d="M124.289 7.84112V15.6911L116.555 15.6911V7.84112L124.289 7.84112Z" fill="white"/>
<path d="M124.284 -0.00310516V7.84689L116.549 7.84689V-0.00310516L124.284 -0.00310516Z" fill="#E0E0E0"/>
<path d="M116.559 172.144V179.994H108.825V172.144H116.559Z" fill="white"/>
<path d="M116.554 164.3V172.15H108.819V164.3H116.554Z" fill="#E0E0E0"/>
<path d="M116.56 156.455V164.305H108.826V156.455H116.56Z" fill="white"/>
<path d="M116.555 148.611V156.461H108.82V148.611H116.555Z" fill="#E0E0E0"/>
<path d="M116.55 140.816V148.666H108.816V140.816H116.55Z" fill="white"/>
<path d="M116.557 132.972V140.822H108.822V132.972H116.557Z" fill="#E0E0E0"/>
<path d="M116.551 125.128V132.978H108.816V125.128H116.551Z" fill="white"/>
<path d="M116.557 117.283V125.133H108.823V117.283H116.557Z" fill="#E0E0E0"/>
<path d="M116.558 109.758V117.608H108.824V109.758H116.558Z" fill="white"/>
<path d="M116.552 101.914V109.764H108.818V101.914H116.552Z" fill="#E0E0E0"/>
<path d="M116.559 94.0695V101.919H108.825V94.0695H116.559Z" fill="white"/>
<path d="M116.553 86.2253V94.0752H108.819V86.2253H116.553Z" fill="#E0E0E0"/>
<path d="M116.56 78.3811V86.231H108.825V78.3811H116.56Z" fill="white"/>
<path d="M116.554 70.5368V78.3868H108.82V70.5368H116.554Z" fill="#E0E0E0"/>
<path d="M116.548 62.6926V70.5426H108.814V62.6926H116.548Z" fill="white"/>
<path d="M116.555 54.8484V62.6984H108.82V54.8484H116.555Z" fill="#E0E0E0"/>
<path d="M116.549 47.0042V54.8542H108.815V47.0042H116.549Z" fill="white"/>
<path d="M116.556 39.16V47.01H108.821V39.16H116.556Z" fill="#E0E0E0"/>
<path d="M116.55 31.3158V39.1658H108.816V31.3158H116.55Z" fill="white"/>
<path d="M116.557 23.4716V31.3216H108.822V23.4716H116.557Z" fill="#E0E0E0"/>
<path d="M116.552 15.6765V23.5265H108.818V15.6765L116.552 15.6765Z" fill="white"/>
<path d="M116.559 7.83227V15.6823L108.824 15.6823V7.83227L116.559 7.83227Z" fill="#E0E0E0"/>
<path d="M116.553 -0.0119553V7.83804L108.818 7.83804V-0.0119553L116.553 -0.0119553Z" fill="white"/>
<path d="M108.829 172.147V179.997H101.094V172.147H108.829Z" fill="#E0E0E0"/>
<path d="M108.823 164.303V172.153H101.089V164.303H108.823Z" fill="white"/>
<path d="M108.83 156.459V164.309H101.095V156.459H108.83Z" fill="#E0E0E0"/>
<path d="M108.824 148.615V156.465H101.089V148.615H108.824Z" fill="white"/>
<path d="M108.818 140.771V148.621H101.084V140.771H108.818Z" fill="#E0E0E0"/>
<path d="M108.826 132.975V140.825H101.091V132.975H108.826Z" fill="white"/>
<path d="M108.82 125.131V132.981H101.086V125.131H108.82Z" fill="#E0E0E0"/>
<path d="M108.827 117.287V125.137H101.092V117.287H108.827Z" fill="white"/>
<path d="M108.821 109.443V117.293H101.086V109.443H108.821Z" fill="#E0E0E0"/>
<path d="M108.821 101.917V109.767H101.087V101.917H108.821Z" fill="white"/>
<path d="M108.828 94.0731V101.923H101.094V94.0731H108.828Z" fill="#E0E0E0"/>
<path d="M108.822 86.2289V94.0789H101.088V86.2289H108.822Z" fill="white"/>
<path d="M108.829 78.3847V86.2347H101.095V78.3847H108.829Z" fill="#E0E0E0"/>
<path d="M108.823 70.5405V78.3905H101.089V70.5405H108.823Z" fill="white"/>
<path d="M108.817 62.6963V70.5463H101.083V62.6963H108.817Z" fill="#E0E0E0"/>
<path d="M108.824 54.8521V62.7021H101.09V54.8521H108.824Z" fill="white"/>
<path d="M108.818 47.0079V54.8579H101.084V47.0079H108.818Z" fill="#E0E0E0"/>
<path d="M108.825 39.1637V47.0137H101.091V39.1637H108.825Z" fill="white"/>
<path d="M108.819 31.3195V39.1695H101.085V31.3195H108.819Z" fill="#E0E0E0"/>
<path d="M108.826 23.4753V31.3253H101.092V23.4753H108.826Z" fill="white"/>
<path d="M108.82 15.6311V23.4811H101.086V15.6311L108.82 15.6311Z" fill="#E0E0E0"/>
<path d="M108.828 7.8359V15.6859L101.093 15.6859V7.8359L108.828 7.8359Z" fill="white"/>
<path d="M108.822 -0.00829315V7.84171L101.088 7.84171V-0.00829315L108.822 -0.00829315Z" fill="#E0E0E0"/>
<path d="M101.098 172.151V180.001H93.3634V172.151H101.098Z" fill="white"/>
<path d="M101.092 164.307V172.157H93.3577V164.307H101.092Z" fill="#E0E0E0"/>
<path d="M101.099 156.463V164.313H93.3643V156.463H101.099Z" fill="white"/>
<path d="M101.093 148.618V156.468H93.3586V148.618H101.093Z" fill="#E0E0E0"/>
<path d="M101.088 140.823V148.673H93.3539V140.823H101.088Z" fill="white"/>
<path d="M101.095 132.979V140.829H93.3605V132.979H101.095Z" fill="#E0E0E0"/>
<path d="M101.089 125.135V132.985H93.3548V125.135H101.089Z" fill="white"/>
<path d="M101.096 117.291V125.141H93.3614V117.291H101.096Z" fill="#E0E0E0"/>
<path d="M101.096 109.765V117.615H93.362V109.765H101.096Z" fill="white"/>
<path d="M101.091 101.921V109.771H93.3563V101.921H101.091Z" fill="#E0E0E0"/>
<path d="M101.097 94.0767V101.927H93.3628V94.0767H101.097Z" fill="white"/>
<path d="M101.091 86.2325V94.0825H93.3571V86.2325H101.091Z" fill="#E0E0E0"/>
<path d="M101.098 78.3883V86.2383H93.3637V78.3883H101.098Z" fill="white"/>
<path d="M101.092 70.5441V78.3941H93.358V70.5441H101.092Z" fill="#E0E0E0"/>
<path d="M101.087 62.6999V70.5499H93.3523V62.6999H101.087Z" fill="white"/>
<path d="M101.093 54.8557V62.7057H93.3589V54.8557H101.093Z" fill="#E0E0E0"/>
<path d="M101.088 47.0115V54.8615H93.3531V47.0115H101.088Z" fill="white"/>
<path d="M101.094 39.1673V47.0173H93.3598V39.1673H101.094Z" fill="#E0E0E0"/>
<path d="M101.089 31.3231V39.1731H93.3541V31.3231H101.089Z" fill="white"/>
<path d="M101.095 23.4789V31.3289H93.3607V23.4789H101.095Z" fill="#E0E0E0"/>
<path d="M101.09 15.6838V23.5338H93.3559V15.6838L101.09 15.6838Z" fill="white"/>
<path d="M101.097 7.83955V15.6895L93.3625 15.6895V7.83955L101.097 7.83955Z" fill="#E0E0E0"/>
<path d="M101.091 -0.0046463V7.84535L93.3568 7.84535V-0.0046463L101.091 -0.0046463Z" fill="white"/>
<path d="M93.3672 172.155V180.005H85.6328V172.155H93.3672Z" fill="#E0E0E0"/>
<path d="M93.3614 164.311V172.161H85.627V164.311H93.3614Z" fill="white"/>
<path d="M93.368 156.466V164.316H85.6337V156.466H93.368Z" fill="#E0E0E0"/>
<path d="M93.3623 148.622V156.472H85.6279V148.622H93.3623Z" fill="white"/>
<path d="M93.3566 140.778V148.628H85.6222V140.778H93.3566Z" fill="#E0E0E0"/>
<path d="M93.3641 132.983V140.833H85.6297V132.983H93.3641Z" fill="white"/>
<path d="M93.3585 125.139V132.989H85.6241V125.139H93.3585Z" fill="#E0E0E0"/>
<path d="M93.3651 117.294V125.144H85.6307V117.294H93.3651Z" fill="white"/>
<path d="M93.3594 109.45V117.3H85.625V109.45H93.3594Z" fill="#E0E0E0"/>
<path d="M93.3599 101.925V109.775H85.6255V101.925H93.3599Z" fill="white"/>
<path d="M93.3665 94.0804V101.93H85.6321V94.0804H93.3665Z" fill="#E0E0E0"/>
<path d="M93.3607 86.2362V94.0862H85.6263V86.2362H93.3607Z" fill="white"/>
<path d="M93.3673 78.392V86.242H85.6329V78.392H93.3673Z" fill="#E0E0E0"/>
<path d="M93.3616 70.5478V78.3978H85.6272V70.5478H93.3616Z" fill="white"/>
<path d="M93.3559 62.7036V70.5536H85.6215V62.7036H93.3559Z" fill="#E0E0E0"/>
<path d="M93.3625 54.8594V62.7094H85.6281V54.8594H93.3625Z" fill="white"/>
<path d="M93.3568 47.0152V54.8652H85.6224V47.0152H93.3568Z" fill="#E0E0E0"/>
<path d="M93.3634 39.171V47.021H85.629V39.171H93.3634Z" fill="white"/>
<path d="M93.3577 31.3268V39.1768H85.6233V31.3268H93.3577Z" fill="#E0E0E0"/>
<path d="M93.3643 23.4826V31.3326H85.6299V23.4826H93.3643Z" fill="white"/>
<path d="M93.3586 15.6384V23.4884H85.6242V15.6384L93.3586 15.6384Z" fill="#E0E0E0"/>
<path d="M93.3662 7.84321V15.6932L85.6318 15.6932V7.84321L93.3662 7.84321Z" fill="white"/>
<path d="M93.3605 -0.00101471V7.84898L85.6261 7.84898V-0.00101471L93.3605 -0.00101471Z" fill="#E0E0E0"/>
<path d="M85.6363 172.146V179.996H77.9019V172.146H85.6363Z" fill="white"/>
<path d="M85.6306 164.302V172.152H77.8962V164.302H85.6306Z" fill="#E0E0E0"/>
<path d="M85.6372 156.457V164.307H77.9028V156.457H85.6372Z" fill="white"/>
<path d="M85.6315 148.613V156.463H77.8971V148.613H85.6315Z" fill="#E0E0E0"/>
<path d="M85.6267 140.818V148.668H77.8923V140.818H85.6267Z" fill="white"/>
<path d="M85.6333 132.974V140.824H77.8989V132.974H85.6333Z" fill="#E0E0E0"/>
<path d="M85.6276 125.13V132.98H77.8932V125.13H85.6276Z" fill="white"/>
<path d="M85.6342 117.285V125.135H77.8998V117.285H85.6342Z" fill="#E0E0E0"/>
<path d="M85.6348 109.76V117.61H77.9004V109.76H85.6348Z" fill="white"/>
<path d="M85.629 101.916V109.766H77.8946V101.916H85.629Z" fill="#E0E0E0"/>
<path d="M85.6357 94.0715V101.922H77.9013V94.0715H85.6357Z" fill="white"/>
<path d="M85.6299 86.2273V94.0773H77.8956V86.2273H85.6299Z" fill="#E0E0E0"/>
<path d="M85.6365 78.3831V86.2331H77.9021V78.3831H85.6365Z" fill="white"/>
<path d="M85.6308 70.5389V78.3889H77.8964V70.5389H85.6308Z" fill="#E0E0E0"/>
<path d="M85.6251 62.6947V70.5447H77.8907V62.6947H85.6251Z" fill="white"/>
<path d="M85.6317 54.8505V62.7005H77.8973V54.8505H85.6317Z" fill="#E0E0E0"/>
<path d="M85.626 47.0063V54.8563H77.8916V47.0063H85.626Z" fill="white"/>
<path d="M85.6326 39.1621V47.0121H77.8982V39.1621H85.6326Z" fill="#E0E0E0"/>
<path d="M85.6269 31.3179V39.1679H77.8925V31.3179H85.6269Z" fill="white"/>
<path d="M85.6335 23.4737V31.3237H77.8992V23.4737H85.6335Z" fill="#E0E0E0"/>
<path d="M85.6287 15.6785V23.5285H77.8943V15.6785L85.6287 15.6785Z" fill="white"/>
<path d="M85.6353 7.83434V15.6843L77.9009 15.6843V7.83434L85.6353 7.83434Z" fill="#E0E0E0"/>
<path d="M85.6296 -0.00986481V7.84013L77.8953 7.84013V-0.00986481L85.6296 -0.00986481Z" fill="white"/>
<path d="M77.9055 172.15V180H70.1711V172.15H77.9055Z" fill="#E0E0E0"/>
<path d="M77.8998 164.305V172.155H70.1654V164.305H77.8998Z" fill="white"/>
<path d="M77.9064 156.461V164.311H70.172V156.461H77.9064Z" fill="#E0E0E0"/>
<path d="M77.9007 148.617V156.467H70.1663V148.617H77.9007Z" fill="white"/>
<path d="M77.895 140.773V148.623H70.1606V140.773H77.895Z" fill="#E0E0E0"/>
<path d="M77.9026 132.978V140.828H70.1682V132.978H77.9026Z" fill="white"/>
<path d="M77.8969 125.133V132.983H70.1625V125.133H77.8969Z" fill="#E0E0E0"/>
<path d="M77.9035 117.289V125.139H70.1691V117.289H77.9035Z" fill="white"/>
<path d="M77.8977 109.445V117.295H70.1633V109.445H77.8977Z" fill="#E0E0E0"/>
<path d="M77.8983 101.919V109.769H70.1639V101.919H77.8983Z" fill="white"/>
<path d="M77.9049 94.0752V101.925H70.1705V94.0752H77.9049Z" fill="#E0E0E0"/>
<path d="M77.8991 86.231V94.081H70.1648V86.231H77.8991Z" fill="white"/>
<path d="M77.9058 78.3868V86.2368H70.1714V78.3868H77.9058Z" fill="#E0E0E0"/>
<path d="M77.9 70.5426V78.3926H70.1656V70.5426H77.9Z" fill="white"/>
<path d="M77.8943 62.6984V70.5484H70.1599V62.6984H77.8943Z" fill="#E0E0E0"/>
<path d="M77.9009 54.8542V62.7042H70.1666V54.8542H77.9009Z" fill="white"/>
<path d="M77.8952 47.01V54.86H70.1608V47.01H77.8952Z" fill="#E0E0E0"/>
<path d="M77.9018 39.1658V47.0158H70.1674V39.1658H77.9018Z" fill="white"/>
<path d="M77.8961 31.3216V39.1716H70.1617V31.3216H77.8961Z" fill="#E0E0E0"/>
<path d="M77.9027 23.4773V31.3273H70.1683V23.4773H77.9027Z" fill="white"/>
<path d="M77.897 15.6332V23.4832H70.1626V15.6332L77.897 15.6332Z" fill="#E0E0E0"/>
<path d="M77.9045 7.83799V15.688L70.1702 15.688V7.83799L77.9045 7.83799Z" fill="white"/>
<path d="M77.8988 -0.00621796V7.84378L70.1644 7.84378V-0.00621796L77.8988 -0.00621796Z" fill="#E0E0E0"/>
<path d="M70.1747 172.153V180.003H62.4404V172.153H70.1747Z" fill="white"/>
<path d="M70.169 164.309V172.159H62.4346V164.309H70.169Z" fill="#E0E0E0"/>
<path d="M70.1756 156.465V164.315H62.4412V156.465H70.1756Z" fill="white"/>
<path d="M70.1699 148.621V156.471H62.4355V148.621H70.1699Z" fill="#E0E0E0"/>
<path d="M70.1651 140.825V148.675H62.4307V140.825H70.1651Z" fill="white"/>
<path d="M70.1718 132.981V140.831H62.4374V132.981H70.1718Z" fill="#E0E0E0"/>
<path d="M70.166 125.137V132.987H62.4316V125.137H70.166Z" fill="white"/>
<path d="M70.1727 117.293V125.143H62.4383V117.293H70.1727Z" fill="#E0E0E0"/>
<path d="M70.1732 109.767V117.617H62.4388V109.767H70.1732Z" fill="white"/>
<path d="M70.1674 101.923V109.773H62.4331V101.923H70.1674Z" fill="#E0E0E0"/>
<path d="M70.1741 94.0788V101.929H62.4397V94.0788H70.1741Z" fill="white"/>
<path d="M70.1683 86.2346V94.0846H62.4339V86.2346H70.1683Z" fill="#E0E0E0"/>
<path d="M70.1749 78.3904V86.2404H62.4405V78.3904H70.1749Z" fill="white"/>
<path d="M70.1692 70.5462V78.3962H62.4348V70.5462H70.1692Z" fill="#E0E0E0"/>
<path d="M70.1635 62.702V70.552H62.4292V62.702H70.1635Z" fill="white"/>
<path d="M70.1701 54.8578V62.7078H62.4358V54.8578H70.1701Z" fill="#E0E0E0"/>
<path d="M70.1644 47.0136V54.8636H62.43V47.0136H70.1644Z" fill="white"/>
<path d="M70.171 39.1694V47.0194H62.4366V39.1694H70.171Z" fill="#E0E0E0"/>
<path d="M70.1653 31.3252V39.1752H62.4309V31.3252H70.1653Z" fill="white"/>
<path d="M70.1719 23.481V31.331H62.4375V23.481H70.1719Z" fill="#E0E0E0"/>
<path d="M70.1671 15.6858V23.5358H62.4328V15.6858L70.1671 15.6858Z" fill="white"/>
<path d="M70.1737 7.84162V15.6916L62.4394 15.6916V7.84162L70.1737 7.84162Z" fill="#E0E0E0"/>
<path d="M70.168 -0.00257111V7.84743L62.4336 7.84743V-0.00257111L70.168 -0.00257111Z" fill="white"/>
<path d="M62.4439 172.144V179.994H54.7095V172.144H62.4439Z" fill="#E0E0E0"/>
<path d="M62.4382 164.3V172.15H54.7038V164.3H62.4382Z" fill="white"/>
<path d="M62.4449 156.456V164.306H54.7105V156.456H62.4449Z" fill="#E0E0E0"/>
<path d="M62.4391 148.612V156.462H54.7047V148.612H62.4391Z" fill="white"/>
<path d="M62.4334 140.767V148.617H54.699V140.767H62.4334Z" fill="#E0E0E0"/>
<path d="M62.441 132.972V140.822H54.7066V132.972H62.441Z" fill="white"/>
<path d="M62.4352 125.128V132.978H54.7009V125.128H62.4352Z" fill="#E0E0E0"/>
<path d="M62.4419 117.284V125.134H54.7075V117.284H62.4419Z" fill="white"/>
<path d="M62.4362 109.44V117.29H54.7018V109.44H62.4362Z" fill="#E0E0E0"/>
<path d="M62.4366 101.914V109.764H54.7023V101.914H62.4366Z" fill="white"/>
<path d="M62.4433 94.07V101.92H54.7089V94.07H62.4433Z" fill="#E0E0E0"/>
<path d="M62.4375 86.2258V94.0758H54.7031V86.2258H62.4375Z" fill="white"/>
<path d="M62.4442 78.3816V86.2316H54.7098V78.3816H62.4442Z" fill="#E0E0E0"/>
<path d="M62.4384 70.5374V78.3874H54.7041V70.5374H62.4384Z" fill="white"/>
<path d="M62.4327 62.6932V70.5432H54.6983V62.6932H62.4327Z" fill="#E0E0E0"/>
<path d="M62.4393 54.849V62.699H54.7049V54.849H62.4393Z" fill="white"/>
<path d="M62.4336 47.0048V54.8548H54.6992V47.0048H62.4336Z" fill="#E0E0E0"/>
<path d="M62.4402 39.1606V47.0106H54.7058V39.1606H62.4402Z" fill="white"/>
<path d="M62.4345 31.3164V39.1664H54.7001V31.3164H62.4345Z" fill="#E0E0E0"/>
<path d="M62.4411 23.4721V31.3221H54.7067V23.4721H62.4411Z" fill="white"/>
<path d="M62.4354 15.628V23.478H54.701V15.628L62.4354 15.628Z" fill="#E0E0E0"/>
<path d="M62.443 7.83277V15.6828L54.7086 15.6828V7.83277L62.443 7.83277Z" fill="white"/>
<path d="M62.4373 -0.0114365V7.83856L54.7029 7.83856V-0.0114365L62.4373 -0.0114365Z" fill="#E0E0E0"/>
<path d="M54.7131 172.148V179.998H46.9787V172.148H54.7131Z" fill="white"/>
<path d="M54.7074 164.304V172.154H46.973V164.304H54.7074Z" fill="#E0E0E0"/>
<path d="M54.714 156.46V164.31H46.9796V156.46H54.714Z" fill="white"/>
<path d="M54.7083 148.615V156.465H46.9739V148.615H54.7083Z" fill="#E0E0E0"/>
<path d="M54.7035 140.82V148.67H46.9691V140.82H54.7035Z" fill="white"/>
<path d="M54.7101 132.976V140.826H46.9758V132.976H54.7101Z" fill="#E0E0E0"/>
<path d="M54.7044 125.132V132.982H46.97V125.132H54.7044Z" fill="white"/>
<path d="M54.711 117.288V125.138H46.9766V117.288H54.711Z" fill="#E0E0E0"/>
<path d="M54.7116 109.762V117.612H46.9772V109.762H54.7116Z" fill="white"/>
<path d="M54.7059 101.918V109.768H46.9715V101.918H54.7059Z" fill="#E0E0E0"/>
<path d="M54.7125 94.0736V101.924H46.9781V94.0736H54.7125Z" fill="white"/>
<path d="M54.7068 86.2294V94.0794H46.9724V86.2294H54.7068Z" fill="#E0E0E0"/>
<path d="M54.7133 78.3852V86.2352H46.979V78.3852H54.7133Z" fill="white"/>
<path d="M54.7076 70.541V78.391H46.9733V70.541H54.7076Z" fill="#E0E0E0"/>
<path d="M54.7019 62.6968V70.5468H46.9675V62.6968H54.7019Z" fill="white"/>
<path d="M54.7086 54.8526V62.7026H46.9742V54.8526H54.7086Z" fill="#E0E0E0"/>
<path d="M54.7028 47.0084V54.8584H46.9684V47.0084H54.7028Z" fill="white"/>
<path d="M54.7094 39.1642V47.0142H46.975V39.1642H54.7094Z" fill="#E0E0E0"/>
<path d="M54.7037 31.32V39.17H46.9693V31.32H54.7037Z" fill="white"/>
<path d="M54.7103 23.4758V31.3258H46.9759V23.4758H54.7103Z" fill="#E0E0E0"/>
<path d="M54.7055 15.6806V23.5306H46.9712V15.6806L54.7055 15.6806Z" fill="white"/>
<path d="M54.7122 7.83642V15.6864L46.9778 15.6864V7.83642L54.7122 7.83642Z" fill="#E0E0E0"/>
<path d="M54.7064 -0.00780487V7.84219L46.972 7.84219V-0.00780487L54.7064 -0.00780487Z" fill="white"/>
<path d="M46.9823 172.152V180.002H39.2479V172.152H46.9823Z" fill="#E0E0E0"/>
<path d="M46.9766 164.307V172.157H39.2422V164.307H46.9766Z" fill="white"/>
<path d="M46.9832 156.463V164.313H39.2488V156.463H46.9832Z" fill="#E0E0E0"/>
<path d="M46.9775 148.619V156.469H39.2431V148.619H46.9775Z" fill="white"/>
<path d="M46.9718 140.775V148.625H39.2374V140.775H46.9718Z" fill="#E0E0E0"/>
<path d="M46.9794 132.98V140.83H39.245V132.98H46.9794Z" fill="white"/>
<path d="M46.9736 125.135V132.985H39.2392V125.135H46.9736Z" fill="#E0E0E0"/>
<path d="M46.9803 117.291V125.141H39.2459V117.291H46.9803Z" fill="white"/>
<path d="M46.9745 109.447V117.297H39.2402V109.447H46.9745Z" fill="#E0E0E0"/>
<path d="M46.9751 101.921V109.771H39.2407V101.921H46.9751Z" fill="white"/>
<path d="M46.9817 94.0773V101.927H39.2473V94.0773H46.9817Z" fill="#E0E0E0"/>
<path d="M46.976 86.2331V94.0831H39.2416V86.2331H46.976Z" fill="white"/>
<path d="M46.9826 78.3889V86.2389H39.2482V78.3889H46.9826Z" fill="#E0E0E0"/>
<path d="M46.9769 70.5447V78.3947H39.2425V70.5447H46.9769Z" fill="white"/>
<path d="M46.9712 62.7005V70.5505H39.2368V62.7005H46.9712Z" fill="#E0E0E0"/>
<path d="M46.9778 54.8563V62.7063H39.2434V54.8563H46.9778Z" fill="white"/>
<path d="M46.972 47.0121V54.8621H39.2377V47.0121H46.972Z" fill="#E0E0E0"/>
<path d="M46.9786 39.1679V47.0179H39.2443V39.1679H46.9786Z" fill="white"/>
<path d="M46.9729 31.3237V39.1737H39.2385V31.3237H46.9729Z" fill="#E0E0E0"/>
<path d="M46.9796 23.4795V31.3295H39.2452V23.4795H46.9796Z" fill="white"/>
<path d="M46.9738 15.6353V23.4853H39.2394V15.6353L46.9738 15.6353Z" fill="#E0E0E0"/>
<path d="M46.9814 7.84008V15.6901L39.247 15.6901V7.84008L46.9814 7.84008Z" fill="white"/>
<path d="M46.9757 -0.00413132V7.84587L39.2413 7.84587V-0.00413132L46.9757 -0.00413132Z" fill="#E0E0E0"/>
<path d="M39.2516 172.155V180.005H31.5172V172.155H39.2516Z" fill="white"/>
<path d="M39.2458 164.311V172.161H31.5115V164.311H39.2458Z" fill="#E0E0E0"/>
<path d="M39.2525 156.467V164.317H31.5181V156.467H39.2525Z" fill="white"/>
<path d="M39.2467 148.623V156.473H31.5123V148.623H39.2467Z" fill="#E0E0E0"/>
<path d="M39.242 140.827V148.677H31.5076V140.827H39.242Z" fill="white"/>
<path d="M39.2486 132.983V140.833H31.5142V132.983H39.2486Z" fill="#E0E0E0"/>
<path d="M39.2429 125.139V132.989H31.5085V125.139H39.2429Z" fill="white"/>
<path d="M39.2495 117.295V125.145H31.5151V117.295H39.2495Z" fill="#E0E0E0"/>
<path d="M39.25 109.769V117.619H31.5156V109.769H39.25Z" fill="white"/>
<path d="M39.2443 101.925V109.775H31.5099V101.925H39.2443Z" fill="#E0E0E0"/>
<path d="M39.2509 94.0809V101.931H31.5165V94.0809H39.2509Z" fill="white"/>
<path d="M39.2452 86.2367V94.0867H31.5108V86.2367H39.2452Z" fill="#E0E0E0"/>
<path d="M39.2518 78.3925V86.2425H31.5174V78.3925H39.2518Z" fill="white"/>
<path d="M39.2461 70.5483V78.3983H31.5117V70.5483H39.2461Z" fill="#E0E0E0"/>
<path d="M39.2404 62.7041V70.5541H31.506V62.7041H39.2404Z" fill="white"/>
<path d="M39.247 54.8599V62.7099H31.5126V54.8599H39.247Z" fill="#E0E0E0"/>
<path d="M39.2412 47.0157V54.8657H31.5068V47.0157H39.2412Z" fill="white"/>
<path d="M39.2479 39.1715V47.0215H31.5135V39.1715H39.2479Z" fill="#E0E0E0"/>
<path d="M39.2422 31.3273V39.1773H31.5078V31.3273H39.2422Z" fill="white"/>
<path d="M39.2487 23.4831V31.3331H31.5144V23.4831H39.2487Z" fill="#E0E0E0"/>
<path d="M39.244 15.6879V23.5379H31.5096V15.6879L39.244 15.6879Z" fill="white"/>
<path d="M39.2506 7.84374V15.6937L31.5162 15.6937V7.84374L39.2506 7.84374Z" fill="#E0E0E0"/>
<path d="M39.2448 -0.000480652V7.84952L31.5105 7.84952V-0.000480652L39.2448 -0.000480652Z" fill="white"/>
<path d="M31.5208 172.146V179.996H23.7864V172.146H31.5208Z" fill="#E0E0E0"/>
<path d="M31.515 164.302V172.152H23.7807V164.302H31.515Z" fill="white"/>
<path d="M31.5216 156.458V164.308H23.7872V156.458H31.5216Z" fill="#E0E0E0"/>
<path d="M31.5159 148.614V156.464H23.7815V148.614H31.5159Z" fill="white"/>
<path d="M31.5102 140.77V148.62H23.7758V140.77H31.5102Z" fill="#E0E0E0"/>
<path d="M31.5178 132.974V140.824H23.7834V132.974H31.5178Z" fill="white"/>
<path d="M31.5121 125.13V132.98H23.7777V125.13H31.5121Z" fill="#E0E0E0"/>
<path d="M31.5187 117.286V125.136H23.7843V117.286H31.5187Z" fill="white"/>
<path d="M31.513 109.442V117.292H23.7786V109.442H31.513Z" fill="#E0E0E0"/>
<path d="M31.5135 101.916V109.766H23.7791V101.916H31.5135Z" fill="white"/>
<path d="M31.5201 94.0721V101.922H23.7857V94.0721H31.5201Z" fill="#E0E0E0"/>
<path d="M31.5144 86.2279V94.0779H23.78V86.2279H31.5144Z" fill="white"/>
<path d="M31.521 78.3837V86.2337H23.7866V78.3837H31.521Z" fill="#E0E0E0"/>
<path d="M31.5153 70.5395V78.3895H23.7809V70.5395H31.5153Z" fill="white"/>
<path d="M31.5096 62.6953V70.5453H23.7752V62.6953H31.5096Z" fill="#E0E0E0"/>
<path d="M31.5162 54.8511V62.7011H23.7818V54.8511H31.5162Z" fill="white"/>
<path d="M31.5104 47.0069V54.8569H23.776V47.0069H31.5104Z" fill="#E0E0E0"/>
<path d="M31.517 39.1627V47.0127H23.7826V39.1627H31.517Z" fill="white"/>
<path d="M31.5114 31.3185V39.1685H23.777V31.3185H31.5114Z" fill="#E0E0E0"/>
<path d="M31.5179 23.4742V31.3242H23.7836V23.4742H31.5179Z" fill="white"/>
<path d="M31.5122 15.6301V23.4801H23.7778V15.6301L31.5122 15.6301Z" fill="#E0E0E0"/>
<path d="M31.5198 7.83488V15.6849L23.7854 15.6849V7.83488L31.5198 7.83488Z" fill="white"/>
<path d="M31.5141 -0.00933266V7.84067L23.7797 7.84067V-0.00933266L31.5141 -0.00933266Z" fill="#E0E0E0"/>
<path d="M23.7899 172.15V180H16.0556V172.15H23.7899Z" fill="white"/>
<path d="M23.7842 164.306V172.156H16.0498V164.306H23.7842Z" fill="#E0E0E0"/>
<path d="M23.7909 156.462V164.312H16.0565V156.462H23.7909Z" fill="white"/>
<path d="M23.7851 148.617V156.467H16.0507V148.617H23.7851Z" fill="#E0E0E0"/>
<path d="M23.7804 140.822V148.672H16.046V140.822H23.7804Z" fill="white"/>
<path d="M23.787 132.978V140.828H16.0526V132.978H23.787Z" fill="#E0E0E0"/>
<path d="M23.7812 125.134V132.984H16.0469V125.134H23.7812Z" fill="white"/>
<path d="M23.7879 117.29V125.14H16.0535V117.29H23.7879Z" fill="#E0E0E0"/>
<path d="M23.7884 109.764V117.614H16.054V109.764H23.7884Z" fill="white"/>
<path d="M23.7827 101.92V109.77H16.0483V101.92H23.7827Z" fill="#E0E0E0"/>
<path d="M23.7893 94.0757V101.926H16.0549V94.0757H23.7893Z" fill="white"/>
<path d="M23.7836 86.2315V94.0815H16.0492V86.2315H23.7836Z" fill="#E0E0E0"/>
<path d="M23.7902 78.3873V86.2373H16.0558V78.3873H23.7902Z" fill="white"/>
<path d="M23.7845 70.5431V78.3931H16.0501V70.5431H23.7845Z" fill="#E0E0E0"/>
<path d="M23.7788 62.6989V70.5489H16.0444V62.6989H23.7788Z" fill="white"/>
<path d="M23.7854 54.8547V62.7047H16.051V54.8547H23.7854Z" fill="#E0E0E0"/>
<path d="M23.7797 47.0105V54.8605H16.0453V47.0105H23.7797Z" fill="white"/>
<path d="M23.7863 39.1663V47.0163H16.0519V39.1663H23.7863Z" fill="#E0E0E0"/>
<path d="M23.7806 31.3221V39.1721H16.0462V31.3221H23.7806Z" fill="white"/>
<path d="M23.7872 23.4779V31.3279H16.0528V23.4779H23.7872Z" fill="#E0E0E0"/>
<path d="M23.7824 15.6827V23.5327H16.048V15.6827L23.7824 15.6827Z" fill="white"/>
<path d="M23.789 7.83852V15.6885L16.0546 15.6885V7.83852L23.789 7.83852Z" fill="#E0E0E0"/>
<path d="M23.7833 -0.00567055V7.84433L16.0489 7.84433V-0.00567055L23.7833 -0.00567055Z" fill="white"/>
<path d="M16.0592 172.154V180.004H8.32481L8.32481 172.154H16.0592Z" fill="#E0E0E0"/>
<path d="M16.0535 164.309V172.16H8.31911L8.31911 164.309H16.0535Z" fill="white"/>
<path d="M16.0601 156.465V164.315H8.3257L8.3257 156.465H16.0601Z" fill="#E0E0E0"/>
<path d="M16.0544 148.621V156.471H8.31999L8.31999 148.621H16.0544Z" fill="white"/>
<path d="M16.0487 140.777V148.627H8.31429L8.31429 140.777H16.0487Z" fill="#E0E0E0"/>
<path d="M16.0562 132.982V140.832H8.32185L8.32185 132.982H16.0562Z" fill="white"/>
<path d="M16.0505 125.138V132.988H8.31615L8.31615 125.138H16.0505Z" fill="#E0E0E0"/>
<path d="M16.0572 117.293V125.143H8.32277L8.32277 117.293H16.0572Z" fill="white"/>
<path d="M16.0514 109.449V117.299H8.31703L8.31703 109.449H16.0514Z" fill="#E0E0E0"/>
<path d="M16.0519 101.924V109.774H8.31756L8.31756 101.924H16.0519Z" fill="white"/>
<path d="M16.0586 94.0794V101.929H8.32417L8.32417 94.0794H16.0586Z" fill="#E0E0E0"/>
<path d="M16.0528 86.2352V94.0852H8.31844L8.31844 86.2352H16.0528Z" fill="white"/>
<path d="M16.0594 78.391V86.241H8.32506L8.32506 78.391H16.0594Z" fill="#E0E0E0"/>
<path d="M16.0537 70.5468V78.3968H8.31933L8.31933 70.5468H16.0537Z" fill="white"/>
<path d="M16.048 62.7026V70.5526H8.31361L8.31361 62.7026H16.048Z" fill="#E0E0E0"/>
<path d="M16.0546 54.8584V62.7084H8.32021L8.32021 54.8584H16.0546Z" fill="white"/>
<path d="M16.0489 47.0142V54.8642H8.3145L8.3145 47.0142H16.0489Z" fill="#E0E0E0"/>
<path d="M16.0555 39.17V47.02H8.32106L8.32106 39.17H16.0555Z" fill="white"/>
<path d="M16.0498 31.3258V39.1758H8.31537L8.31537 31.3258H16.0498Z" fill="#E0E0E0"/>
<path d="M16.0564 23.4815V31.3315H8.32201L8.32201 23.4815H16.0564Z" fill="white"/>
<path d="M16.0507 15.6374V23.4874H8.31626L8.31626 15.6374L16.0507 15.6374Z" fill="#E0E0E0"/>
<path d="M16.0583 7.8422V15.6922L8.32387 15.6922L8.32387 7.8422L16.0583 7.8422Z" fill="white"/>
<path d="M16.0525 -0.00200844V7.84799L8.31814 7.84799L8.31814 -0.00200844L16.0525 -0.00200844Z" fill="#E0E0E0"/>
<path d="M8.32837 172.145L8.32837 179.995H0.593978L0.593978 172.145H8.32837Z" fill="white"/>
<path d="M8.32266 164.301L8.32266 172.151H0.588271L0.588271 164.301H8.32266Z" fill="#E0E0E0"/>
<path d="M8.32925 156.456L8.32925 164.306H0.594863L0.594863 156.456H8.32925Z" fill="white"/>
<path d="M8.32355 148.612L8.32355 156.462H0.589157L0.589157 148.612H8.32355Z" fill="#E0E0E0"/>
<path d="M8.31879 140.817L8.31879 148.667H0.584396L0.584396 140.817H8.31879Z" fill="white"/>
<path d="M8.32541 132.973L8.32541 140.823H0.591016L0.591016 132.973H8.32541Z" fill="#E0E0E0"/>
<path d="M8.3197 125.129L8.3197 132.979H0.585313L0.585313 125.129H8.3197Z" fill="white"/>
<path d="M8.32632 117.284L8.32632 125.134H0.591932L0.591932 117.284H8.32632Z" fill="#E0E0E0"/>
<path d="M8.32684 109.759L8.32684 117.609H0.592454L0.592454 109.759H8.32684Z" fill="white"/>
<path d="M8.32111 101.915L8.32111 109.765H0.58672L0.58672 101.915H8.32111Z" fill="#E0E0E0"/>
<path d="M8.32773 94.0705L8.32773 101.921H0.593336L0.593336 94.0705H8.32773Z" fill="white"/>
<path d="M8.32199 86.2263L8.32199 94.0763H0.587605L0.587605 86.2263H8.32199Z" fill="#E0E0E0"/>
<path d="M8.32861 78.3821L8.32861 86.2321H0.594221L0.594221 78.3821H8.32861Z" fill="white"/>
<path d="M8.32291 70.5379L8.32291 78.3879H0.588521L0.588521 70.5379H8.32291Z" fill="#E0E0E0"/>
<path d="M8.3172 62.6937L8.3172 70.5437H0.582807L0.582807 62.6937H8.3172Z" fill="white"/>
<path d="M8.32379 54.8495L8.32379 62.6995H0.589406L0.589406 54.8495H8.32379Z" fill="#E0E0E0"/>
<path d="M8.31805 47.0053L8.31805 54.8553H0.583662L0.583662 47.0053H8.31805Z" fill="white"/>
<path d="M8.32465 39.1611L8.32465 47.0111H0.590261L0.590261 39.1611H8.32465Z" fill="#E0E0E0"/>
<path d="M8.31897 31.3169L8.31897 39.1669H0.584569L0.584569 31.3169H8.31897Z" fill="white"/>
<path d="M8.32556 23.4727L8.32556 31.3227H0.591176L0.591176 23.4727H8.32556Z" fill="#E0E0E0"/>
<path d="M8.3208 15.6775L8.3208 23.5275H0.586415L0.586415 15.6775L8.3208 15.6775Z" fill="white"/>
<path d="M8.32739 7.8333L8.32739 15.6833L0.593007 15.6833L0.593007 7.8333L8.32739 7.8333Z" fill="#E0E0E0"/>
<path d="M8.32169 -0.0109034L8.32169 7.8391L0.5873 7.8391L0.5873 -0.0109034L8.32169 -0.0109034Z" fill="white"/>
</g>
<defs>
<clipPath id="clip0_646_8536">
<rect width="240" height="180" fill="white" transform="matrix(1 0 0 -1 0.592499 180)"/>
</clipPath>
</defs>
</svg>
